PathFileType	4	(X/Y/Z)	C:\Users\Basilio\Documents\Thesis Gigler\squatting_fais\c3dfiles\054\SJ_pre5\markers_experimental.trc
DataRate	CameraRate	NumFrames	NumMarkers	Units	OrigDataRate	OrigDataStartFrame	OrigNumFrames
200.000000	200.000000	4	61	mm	200.000000	400	1602
Frame#	Time	FHD			LBHD			RBHD			C7			T10			CLAV			LSHO			LUUPA			LMUPA			LDUPA			LLEP			LMEP			LRAD			LUL			LRFIN			RSHO			RUPA1			RMUPA			RDUPA			RLEP			RMEP			RRAD			RUL			RUFIN			LASI			RASI			USACR			LSACR			RSACR			LTHI1			LTHI2			LTHI3			LTHI4			LLFC			LMFC			LTIB1			LTIB2			LTIB3			LTIB4			LLMAL			LMMAL			LHEE			LMT1			LMT2			LMT5			RTHI			RTHI2			RTHI3			RTHI4			RLFC			RMFC			RTIB1			RTIB2			RTIB3			RTIB4			RLMAL			RMMAL			RHEE			RMT1			RMT2			RMT5			
		X1	Y1	Z1	X2	Y2	Z2	X3	Y3	Z3	X4	Y4	Z4	X5	Y5	Z5	X6	Y6	Z6	X7	Y7	Z7	X8	Y8	Z8	X9	Y9	Z9	X10	Y10	Z10	X11	Y11	Z11	X12	Y12	Z12	X13	Y13	Z13	X14	Y14	Z14	X15	Y15	Z15	X16	Y16	Z16	X17	Y17	Z17	X18	Y18	Z18	X19	Y19	Z19	X20	Y20	Z20	X21	Y21	Z21	X22	Y22	Z22	X23	Y23	Z23	X24	Y24	Z24	X25	Y25	Z25	X26	Y26	Z26	X27	Y27	Z27	X28	Y28	Z28	X29	Y29	Z29	X30	Y30	Z30	X31	Y31	Z31	X32	Y32	Z32	X33	Y33	Z33	X34	Y34	Z34	X35	Y35	Z35	X36	Y36	Z36	X37	Y37	Z37	X38	Y38	Z38	X39	Y39	Z39	X40	Y40	Z40	X41	Y41	Z41	X42	Y42	Z42	X43	Y43	Z43	X44	Y44	Z44	X45	Y45	Z45	X46	Y46	Z46	X47	Y47	Z47	X48	Y48	Z48	X49	Y49	Z49	X50	Y50	Z50	X51	Y51	Z51	X52	Y52	Z52	X53	Y53	Z53	X54	Y54	Z54	X55	Y55	Z55	X56	Y56	Z56	X57	Y57	Z57	X58	Y58	Z58	X59	Y59	Z59	X60	Y60	Z60	X61	Y61	Z61	

401	2	55.02379989624025	1284.771484375	-893.6467895507815	-99.10318756103518	1219.817138671875	-970.2797851562502	-123.5389404296875	1221.477783203125	-832.7188720703127	-164.6758880615235	1133.197875976563	-882.637878417969	-415.9584045410157	914.6057128906252	-910.6480102539065	-86.2696990966797	994.5092773437502	-890.4576416015627	-81.43244934082033	1074.472900390625	-1042.179321289063	-201.1314239501954	1044.765991210938	-1234.439697265625	-194.7844390869141	995.3829345703127	-1244.896606445313	-236.300521850586	1011.25830078125	-1286.735473632813	-272.7755737304688	959.2102050781252	-1312.772583007813	-346.7188720703126	998.2552490234377	-1279.566528320313	-403.4197692871095	802.4533691406252	-1138.733764648438	-383.3077087402344	742.8601074218751	-1182.485229492188	-364.9417114257813	780.547790527344	-1087.746459960938	-83.80448150634767	1053.91943359375	-727.2838134765626	-244.8033752441407	1017.976989746094	-559.5910034179689	-253.5773925781251	970.1234130859377	-552.2784423828126	-299.5939636230469	994.4800415039065	-520.9481811523439	-342.2952575683594	964.2437133789065	-506.8242797851564	-395.2924804687501	1006.872619628906	-561.9442749023439	-462.8164367675782	802.1074218750002	-695.7086791992189	-402.9898376464845	781.928894042969	-719.7677612304689	-448.4029846191407	746.2234497070314	-642.1340942382814	-374.4397583007813	691.2509155273439	-1030.056274414063	-384.0398864746095	703.1087036132814	-776.7424926757815	-486.1249389648439	852.6129150390627	-911.5220947265627	-509.7747192382814	832.4229736328127	-939.958679199219	-513.7579956054689	832.8618164062502	-882.4570922851565	-432.8066711425782	606.5973510742189	-1178.874633789063	-354.1573791503907	589.6064453125001	-1207.007080078125	-326.0437622070313	625.6416625976564	-1196.714111328125	-329.3400573730469	535.9066162109376	-1218.816528320313	-218.6315460205079	454.9710693359376	-1244.232666015625	-154.4019927978516	441.0906372070314	-1124.767333984375	-217.0145111083985	293.9584960937501	-1210.58740234375	-295.5677795410157	276.4313659667969	-1250.265869140625	-257.6850585937501	258.0372619628907	-1235.271606445313	-286.2067260742188	188.3309020996094	-1195.676025390625	-405.7702026367189	87.9402542114258	-1215.535522460938	-348.2465209960938	98.99521636962893	-1135.355834960938	-460.9873962402345	51.70634078979494	-1142.512451171875	-243.5498504638672	54.1523895263672	-1192.3193359375	-252.2640686035157	57.74641036987306	-1241.164184570313	-316.1141052246094	37.43530273437501	-1278.017944335938	-401.6116943359376	571.7263793945314	-618.6030883789064	-338.1860351562501	573.1416625976564	-595.8309936523439	-316.4917602539063	598.3034667968751	-599.1353759765626	-291.8557128906251	503.7578735351564	-581.2106323242189	-246.9820098876954	454.2612915039064	-563.7699584960939	-164.964111328125	459.056610107422	-674.4452514648439	-222.0525512695313	347.2436828613282	-557.2581787109376	-324.8296508789063	308.1303710937501	-560.6537475585939	-284.2122497558594	284.9218750000001	-557.9541015625001	-283.3937072753907	234.5711212158204	-583.9036254882814	-403.5969848632814	89.53372955322267	-601.7192993164064	-341.2942199707032	100.182846069336	-671.8362426757814	-451.1614074707032	48.56399154663087	-679.7174072265626	-235.2941436767579	53.25543594360353	-610.6182861328126	-251.2768096923829	56.17898559570314	-564.8963623046876	-312.9131469726563	33.19899368286134	-535.3849487304689	
402	2.005	56.32658004760744	1281.067016601563	-893.4942016601565	-97.79020690917972	1216.434692382813	-970.1480102539065	-122.172477722168	1217.894409179688	-832.4676513671877	-163.7147216796875	1130.016723632813	-882.4544067382815	-415.548553466797	912.3532714843752	-910.6035766601565	-85.5573196411133	990.6333007812502	-890.2536621093752	-80.15340423583986	1070.850952148438	-1041.849243164063	-199.9777832031251	1041.517822265625	-1234.262817382813	-193.6173095703126	992.1231079101565	-1244.764526367188	-234.9430389404297	1008.117614746094	-1286.484619140625	-271.3849792480469	956.3384399414065	-1312.742309570313	-345.1298217773438	995.9556274414065	-1279.923095703125	-403.4334106445314	800.4304809570315	-1138.894775390625	-383.8215332031251	741.1309204101564	-1182.575439453125	-365.1004028320313	778.3280029296877	-1087.756469726563	-82.8872528076172	1050.336791992188	-727.2125244140626	-244.0982360839844	1015.827209472656	-559.8178710937501	-253.1769561767579	968.1274414062502	-552.2261352539064	-299.1261901855469	992.5860595703127	-520.9065551757814	-341.8841247558594	962.728942871094	-506.9545288085939	-393.8504638671876	1005.267456054688	-562.4575805664064	-462.6904907226564	800.633483886719	-695.7065429687501	-403.0111083984376	780.235778808594	-719.7930297851564	-448.5227661132814	744.7630004882814	-642.0326538085939	-374.6848144531251	689.3695678710939	-1030.258911132813	-383.9600830078126	701.3647460937501	-776.516296386719	-485.865936279297	850.599060058594	-911.6745605468752	-509.6916503906251	830.3916015625002	-939.9241333007815	-514.9086303710939	831.1907958984377	-882.3486938476565	-433.0163879394532	605.3799438476564	-1179.06689453125	-354.9793395996094	589.0973510742189	-1207.147827148438	-326.6110839843751	624.8739624023439	-1196.683959960938	-329.4451904296876	535.3336791992189	-1218.830200195313	-218.5119323730469	454.8818664550782	-1244.308349609375	-154.3704833984375	440.8259582519532	-1124.64892578125	-216.9520874023438	293.8373718261719	-1210.635131835938	-295.4615783691407	276.3534545898438	-1250.307250976563	-257.5971679687501	257.9770812988282	-1235.289184570313	-286.2228393554688	188.2821960449219	-1195.69677734375	-405.7766113281251	87.95407104492189	-1215.517944335938	-348.2595825195313	99.00038146972659	-1135.32421875	-460.913787841797	51.70825958251955	-1142.550659179688	-243.5906066894532	54.1157913208008	-1192.299560546875	-252.2955780029297	57.69716262817384	-1241.153442382813	-316.0977783203126	37.39847946166993	-1277.988159179688	-401.9844055175782	570.8764648437501	-618.6622924804689	-338.4627685546876	572.4462280273439	-595.9315795898439	-316.7777099609376	597.7423706054689	-599.3034667968751	-292.0192260742188	503.2671813964845	-581.0770874023439	-246.6680297851563	454.1105041503907	-563.7932739257814	-164.8031616210938	458.8777770996095	-674.4743652343751	-222.0376739501954	347.1900939941407	-557.3199462890626	-324.6102294921876	308.1102294921876	-560.6527709960939	-284.1094360351563	284.8858337402344	-557.8813476562501	-283.2950744628907	234.4947509765626	-583.9420166015626	-403.6157226562501	89.64664459228517	-601.4506225585939	-341.2571411132813	100.1460800170899	-671.8755493164064	-451.1611328125001	48.52870178222658	-679.6741333007814	-235.2583160400391	53.28493118286134	-610.6053466796876	-251.2762603759766	56.18378829956056	-564.9091186523439	-312.9231262207032	33.23826980590821	-535.4000244140626	
403	2.01	57.94457626342775	1277.269897460938	-893.3948364257815	-96.4091720581055	1212.767211914063	-970.064880371094	-120.8640670776367	1214.312622070313	-832.3760375976565	-161.9612426757813	1126.69580078125	-882.591247558594	-415.3923950195314	910.137390136719	-910.5980224609377	-84.73659515380861	987.3356933593752	-890.0510864257815	-79.18700408935548	1067.27001953125	-1041.512817382813	-197.8373260498047	1038.493286132813	-1234.125	-193.6717071533204	988.5380859375002	-1244.04638671875	-233.4254913330079	1005.220397949219	-1286.45751953125	-270.1736450195313	953.6483154296877	-1312.604370117188	-343.6936035156251	993.5067138671877	-1280.095947265625	-403.5252990722657	798.4340820312502	-1139.056640625	-384.1913452148439	738.9635620117189	-1182.70703125	-365.2173156738282	776.3438720703127	-1087.81396484375	-81.59996032714845	1046.819702148438	-727.0508422851564	-243.5423736572266	1013.580261230469	-559.9431762695314	-252.692367553711	966.1109619140627	-552.1802368164064	-298.5687866210938	991.0622558593752	-521.0880126953126	-341.4169616699219	961.1364746093752	-507.0645751953126	-393.3850708007814	1003.829406738281	-562.7291870117189	-462.529022216797	798.9854125976565	-695.6337280273439	-403.1538696289064	778.459899902344	-719.7941284179689	-448.5607910156251	743.2983398437501	-641.8331298828126	-375.1824340820313	687.3097534179689	-1030.190551757813	-384.2471923828126	699.3859863281251	-776.4526977539065	-485.7518310546876	848.5809326171877	-911.709655761719	-508.8923950195314	828.3568115234377	-939.9802246093752	-513.3595581054689	828.9739379882815	-882.6459960937502	-434.3228454589845	605.0291748046876	-1179.0419921875	-355.5197143554688	588.4467163085939	-1207.28857421875	-327.1831970214844	624.3189086914064	-1196.616821289063	-329.5244140625001	534.5357055664064	-1218.973022460938	-218.3952026367188	454.7654113769532	-1244.335693359375	-154.3336486816407	440.7329101562501	-1125.0625	-216.9106140136719	293.7894897460938	-1210.678100585938	-295.4235229492188	276.3220825195313	-1250.335327148438	-257.4295959472657	257.9472656250001	-1235.349487304688	-286.1839904785157	188.2141265869141	-1195.695190429688	-405.6177368164064	87.92419433593751	-1215.51220703125	-348.2308349609376	98.99102783203128	-1135.288818359375	-460.9801330566407	51.71363067626955	-1142.519897460938	-243.5481414794922	54.13637542724611	-1192.334838867188	-252.2611389160157	57.72871017456056	-1241.173706054688	-316.0949096679688	37.40059280395509	-1277.992919921875	-402.2333984375001	569.9959716796876	-618.6000976562501	-338.6069335937501	571.8576660156251	-596.0660400390626	-317.2873535156251	597.0424804687501	-599.6141967773439	-291.7601623535157	502.7207031250001	-581.1375122070314	-246.5232238769532	453.9620056152345	-563.7519531250001	-164.6914520263672	458.647918701172	-674.5147094726564	-221.8808288574219	347.0064697265626	-557.2698364257814	-324.4070129394532	308.0605468750001	-560.6796875000001	-284.0698547363282	284.8128662109376	-557.8863525390626	-283.1259155273438	234.4254302978516	-584.0126953125001	-403.6130371093751	89.64495849609376	-601.4487915039064	-341.2339782714844	100.1379699707032	-671.8623657226564	-451.1504211425782	48.55547332763673	-679.7180175781251	-235.272201538086	53.2704429626465	-610.6171875000001	-251.2920837402344	56.14462661743165	-564.9423828125001	-312.9153747558594	33.20661544799805	-535.3966064453126	
404	2.015	59.61269378662111	1273.452758789063	-893.2675781250002	-94.9872283935547	1209.142578125	-969.7561035156252	-119.7117996215821	1210.6943359375	-832.0996093750002	-161.1549377441407	1123.552001953125	-882.2519531250002	-414.9035644531251	907.9922485351565	-910.6745605468752	-83.53099060058595	983.7598876953127	-889.925231933594	-77.82710266113283	1063.5400390625	-1041.3193359375	-196.2540893554688	1035.39599609375	-1234.034790039063	-192.3032226562501	985.248474121094	-1243.911987304688	-231.569076538086	1002.12890625	-1286.433471679688	-269.0497436523438	950.7792968750002	-1312.555053710938	-342.4607238769532	991.0979614257815	-1280.214599609375	-403.5441894531251	796.511413574219	-1139.15673828125	-384.6202392578126	736.8924560546876	-1182.89501953125	-365.2543029785157	774.3515625000002	-1087.919189453125	-80.9906692504883	1043.39111328125	-726.8027954101564	-243.0043182373047	1011.480285644531	-559.8878173828126	-252.3628997802735	963.8652954101565	-552.1828613281251	-298.1898498535157	989.2540283203127	-521.1397094726564	-341.0532836914063	959.689147949219	-507.1077575683595	-392.8357849121095	1002.36181640625	-562.9700317382814	-462.5155334472657	797.7089843750002	-695.7155151367189	-402.6926879882814	777.0509033203127	-719.6301269531251	-448.7043457031251	741.9668579101564	-641.7678833007814	-375.5320129394532	685.3991699218751	-1030.332641601563	-384.3193359375001	697.6939086914064	-776.1835937500002	-485.8221435546876	846.8621215820315	-911.847595214844	-509.3846435546876	826.7817382812502	-940.0177001953127	-514.5625610351564	827.6160888671877	-882.5395507812502	-434.5293579101564	603.7565917968751	-1179.267456054688	-356.0615539550782	587.5845947265626	-1207.369873046875	-327.7929077148438	623.7284545898439	-1196.491333007813	-329.8016967773438	534.0441894531251	-1219.126953125	-218.2259979248047	454.6124267578126	-1244.482788085938	-154.5545959472657	440.8488159179689	-1125.886962890625	-216.8399658203126	293.5852661132813	-1210.711669921875	-295.3190612792969	276.2402648925782	-1250.379028320313	-257.4306640625001	257.8294982910157	-1235.3818359375	-286.1446533203126	188.2074127197266	-1195.71630859375	-405.7239685058595	88.00160217285158	-1215.485107421875	-348.2133178710938	98.99006652832034	-1135.272216796875	-460.9568176269532	51.7258758544922	-1142.481323242188	-243.5240020751954	54.12376785278322	-1192.318725585938	-252.2561645507813	57.735652923584	-1241.15771484375	-316.0483093261719	37.41371536254884	-1277.971069335938	-402.2895507812501	569.0273437500001	-618.7514038085939	-338.9066162109376	571.1957397460939	-596.1641845703126	-317.5722656250001	596.5809936523439	-599.8331909179689	-291.7976684570313	502.3784790039064	-581.1016235351564	-246.2726440429688	453.805633544922	-563.7584838867189	-164.5632934570313	458.4959716796876	-674.5499267578126	-221.6525573730469	346.8712158203126	-557.2822265625001	-324.2428283691407	308.0043029785157	-560.5650024414064	-283.9206848144532	284.8100280761719	-557.8140869140626	-282.9491577148438	234.2970581054688	-584.0755004882814	-403.4469299316407	89.53379821777345	-601.7858886718751	-341.2362670898438	100.1151123046875	-671.9061889648439	-451.1517028808595	48.53918457031251	-679.7041625976564	-235.2705841064454	53.26266479492189	-610.6265258789064	-251.3083038330079	56.13124084472658	-564.9545898437501	-312.9453430175782	33.20969772338868	-535.4246215820314	
